<svg width="133" height="74" viewBox="0 0 133 74" fill="none" xmlns="http://www.w3.org/2000/svg">
<path d="M5 32C2.23858 32 0 34.2386 0 37C0 39.7614 2.23858 42 5 42V32ZM131.536 40.5355C133.488 38.5829 133.488 35.4171 131.536 33.4645L99.7157 1.64466C97.7631 -0.307961 94.5973 -0.307961 92.6447 1.64466C90.692 3.59728 90.692 6.76311 92.6447 8.71573L120.929 37L92.6447 65.2843C90.692 67.2369 90.692 70.4027 92.6447 72.3553C94.5973 74.308 97.7631 74.308 99.7157 72.3553L131.536 40.5355ZM5 42H128V32H5V42Z" fill="white"/>
</svg>
