<svg width="16" height="379" viewBox="0 0 16 379" fill="none" xmlns="http://www.w3.org/2000/svg">
<path d="M7.29291 378.707C7.68343 379.098 8.3166 379.098 8.70712 378.707L15.0711 372.343C15.4616 371.953 15.4616 371.319 15.0711 370.929C14.6806 370.538 14.0474 370.538 13.6569 370.929L8.00002 376.586L2.34316 370.929C1.95264 370.538 1.31947 370.538 0.928948 370.929C0.538424 371.319 0.538424 371.953 0.928948 372.343L7.29291 378.707ZM7 4.37114e-08L7 3L9 3L9 -4.37114e-08L7 4.37114e-08ZM7 6L7 12L9 12L9 6L7 6ZM7 15L7 21L9 21L9 15L7 15ZM7 24L7 30L9 30L9 24L7 24ZM7 33L7 39L9 39L9 33L7 33ZM7 42L7 48L9 48L9 42L7 42ZM7 51L7 57L9 57L9 51L7 51ZM7 60L7 66L9 66L9 60L7 60ZM7 69L7 75L9 75L9 69L7 69ZM7 78L7 84L9 84L9 78L7 78ZM7 87L7 93L9 93L9 87L7 87ZM7 96L7 102L9 102L9 96L7 96ZM7 105L7 111L9 111L9 105L7 105ZM7 114L7.00001 120L9.00001 120L9 114L7 114ZM7.00001 123L7.00001 129L9.00001 129L9.00001 123L7.00001 123ZM7.00001 132L7.00001 138L9.00001 138L9.00001 132L7.00001 132ZM7.00001 141L7.00001 147L9.00001 147L9.00001 141L7.00001 141ZM7.00001 150L7.00001 156L9.00001 156L9.00001 150L7.00001 150ZM7.00001 159L7.00001 165L9.00001 165L9.00001 159L7.00001 159ZM7.00001 168L7.00001 174L9.00001 174L9.00001 168L7.00001 168ZM7.00001 177L7.00001 183L9.00001 183L9.00001 177L7.00001 177ZM7.00001 186L7.00001 192L9.00001 192L9.00001 186L7.00001 186ZM7.00001 195L7.00001 201L9.00001 201L9.00001 195L7.00001 195ZM7.00001 204L7.00001 210L9.00001 210L9.00001 204L7.00001 204ZM7.00001 213L7.00001 219L9.00001 219L9.00001 213L7.00001 213ZM7.00001 222L7.00001 228L9.00001 228L9.00001 222L7.00001 222ZM7.00001 231L7.00001 237L9.00001 237L9.00001 231L7.00001 231ZM7.00001 240L7.00001 246L9.00001 246L9.00001 240L7.00001 240ZM7.00001 249L7.00001 255L9.00001 255L9.00001 249L7.00001 249ZM7.00001 258L7.00001 264L9.00001 264L9.00001 258L7.00001 258ZM7.00001 267L7.00001 273L9.00001 273L9.00001 267L7.00001 267ZM7.00001 276L7.00001 282L9.00001 282L9.00001 276L7.00001 276ZM7.00001 285L7.00001 291L9.00001 291L9.00001 285L7.00001 285ZM7.00001 294L7.00001 300L9.00001 300L9.00001 294L7.00001 294ZM7.00001 303L7.00001 309L9.00001 309L9.00001 303L7.00001 303ZM7.00001 312L7.00001 318L9.00001 318L9.00001 312L7.00001 312ZM7.00001 321L7.00001 327L9.00001 327L9.00001 321L7.00001 321ZM7.00001 330L7.00001 336L9.00001 336L9.00001 330L7.00001 330ZM7.00001 339L7.00002 345L9.00002 345L9.00001 339L7.00001 339ZM7.00002 348L7.00002 354L9.00002 354L9.00002 348L7.00002 348ZM7.00002 357L7.00002 363L9.00002 363L9.00002 357L7.00002 357ZM7.00002 366L7.00002 372L9.00002 372L9.00002 366L7.00002 366ZM7.00002 375L7.00002 378L9.00002 378L9.00002 375L7.00002 375Z" fill="white"/>
</svg>
