<svg width="863" height="347" viewBox="0 0 863 347" fill="none" xmlns="http://www.w3.org/2000/svg">
<path d="M854.293 346.707C854.683 347.098 855.317 347.098 855.707 346.707L862.071 340.343C862.462 339.953 862.462 339.319 862.071 338.929C861.681 338.538 861.047 338.538 860.657 338.929L855 344.586L849.343 338.929C848.953 338.538 848.319 338.538 847.929 338.929C847.538 339.319 847.538 339.953 847.929 340.343L854.293 346.707ZM804.678 164.324L804.672 163.324L804.678 164.324ZM51.322 169.176L51.3156 168.176L51.322 169.176ZM0 0V3.05582H2V0H0ZM0 6.11164V12.2233H2V6.11164H0ZM0 15.2791V21.3907H2V15.2791H0ZM0 24.4466V30.5582H2V24.4466H0ZM0 33.614V39.7257H2V33.614H0ZM0 42.7815V48.8931H2V42.7815H0ZM0 51.9489V58.0606H2V51.9489H0ZM0 61.1164V67.228H2V61.1164H0ZM0 70.2838V76.3955H2V70.2838H0ZM0 79.4513V85.5629H2V79.4513H0ZM0 88.6188V94.7304H2V88.6188H0ZM0 97.7862V103.898H2V97.7862H0ZM0 106.954V113.065H2V106.954H0ZM0 116.121V119.177H2V116.121H0ZM0 119.177C0 120.177 0.028771 121.17 0.0855407 122.156L2.08223 122.041C2.02767 121.093 2 120.138 2 119.177H0ZM0.34307 125.124C0.574485 127.117 0.920752 129.074 1.37509 130.99L3.32112 130.529C2.88473 128.689 2.55207 126.808 2.32972 124.893L0.34307 125.124ZM2.14744 133.867C2.72231 135.782 3.4066 137.649 4.19301 139.461L6.02772 138.665C5.27234 136.924 4.61509 135.131 4.06295 133.292L2.14744 133.867ZM5.45894 142.158C6.35827 143.937 7.35867 145.656 8.45253 147.307L10.1198 146.202C9.06882 144.616 8.1077 142.965 7.24376 141.256L5.45894 142.158ZM10.1692 149.741C11.3622 151.332 12.6459 152.851 14.0126 154.29L15.4628 152.913C14.1493 151.53 12.9157 150.07 11.7694 148.541L10.1692 149.741ZM16.1256 156.39C17.5736 157.747 19.1007 159.021 20.6994 160.204L21.8889 158.596C20.3526 157.459 18.885 156.235 17.4935 154.931L16.1256 156.39ZM23.1446 161.905C24.8028 162.988 26.5279 163.977 28.3123 164.865L29.2032 163.074C27.489 162.222 25.8317 161.271 24.2384 160.23L23.1446 161.905ZM31.0179 166.114C32.8352 166.888 34.7066 167.561 36.6247 168.123L37.1875 166.204C35.3452 165.664 33.5478 165.018 31.8022 164.274L31.0179 166.114ZM39.5066 168.877C41.4253 169.319 43.3851 169.653 45.3791 169.871L45.5971 167.883C43.6812 167.673 41.7985 167.352 39.9556 166.928L39.5066 168.877ZM48.3493 170.11C49.3354 170.16 50.3287 170.182 51.3284 170.176L51.3156 168.176C50.3542 168.182 49.3992 168.161 48.4514 168.112L48.3493 170.11ZM51.3284 170.176L54.318 170.157L54.3051 168.157L51.3156 168.176L51.3284 170.176ZM57.3075 170.137L63.2865 170.099L63.2736 168.099L57.2946 168.137L57.3075 170.137ZM66.276 170.08L72.255 170.041L72.2421 168.041L66.2631 168.08L66.276 170.08ZM75.2445 170.022L81.2235 169.983L81.2106 167.983L75.2316 168.022L75.2445 170.022ZM84.213 169.964L90.192 169.926L90.1792 167.926L84.2001 167.964L84.213 169.964ZM93.1816 169.906L99.1606 169.868L99.1477 167.868L93.1687 167.906L93.1816 169.906ZM102.15 169.849L108.129 169.81L108.116 167.81L102.137 167.849L102.15 169.849ZM111.119 169.791L117.098 169.752L117.085 167.752L111.106 167.791L111.119 169.791ZM120.087 169.733L126.066 169.695L126.053 167.695L120.074 167.733L120.087 169.733ZM129.056 169.675L135.035 169.637L135.022 167.637L129.043 167.675L129.056 169.675ZM138.024 169.618L144.003 169.579L143.99 167.579L138.011 167.618L138.024 169.618ZM146.993 169.56L152.972 169.521L152.959 167.521L146.98 167.56L146.993 169.56ZM155.961 169.502L161.94 169.464L161.927 167.464L155.948 167.502L155.961 169.502ZM164.93 169.444L170.909 169.406L170.896 167.406L164.917 167.444L164.93 169.444ZM173.898 169.387L179.877 169.348L179.864 167.348L173.885 167.387L173.898 169.387ZM182.867 169.329L188.846 169.29L188.833 167.29L182.854 167.329L182.867 169.329ZM191.835 169.271L197.814 169.232L197.801 167.233L191.822 167.271L191.835 169.271ZM200.804 169.213L206.783 169.175L206.77 167.175L200.791 167.213L200.804 169.213ZM209.772 169.155L215.751 169.117L215.738 167.117L209.759 167.156L209.772 169.155ZM218.741 169.098L224.72 169.059L224.707 167.059L218.728 167.098L218.741 169.098ZM227.709 169.04L233.688 169.001L233.676 167.001L227.697 167.04L227.709 169.04ZM236.678 168.982L242.657 168.944L242.644 166.944L236.665 166.982L236.678 168.982ZM245.646 168.924L251.625 168.886L251.613 166.886L245.634 166.924L245.646 168.924ZM254.615 168.867L260.594 168.828L260.581 166.828L254.602 166.867L254.615 168.867ZM263.583 168.809L269.562 168.77L269.55 166.77L263.571 166.809L263.583 168.809ZM272.552 168.751L278.531 168.713L278.518 166.713L272.539 166.751L272.552 168.751ZM281.521 168.693L287.5 168.655L287.487 166.655L281.508 166.693L281.521 168.693ZM290.489 168.636L296.468 168.597L296.455 166.597L290.476 166.636L290.489 168.636ZM299.458 168.578L305.437 168.539L305.424 166.539L299.445 166.578L299.458 168.578ZM308.426 168.52L314.405 168.482L314.392 166.482L308.413 166.52L308.426 168.52ZM317.395 168.462L323.374 168.424L323.361 166.424L317.382 166.462L317.395 168.462ZM326.363 168.405L332.342 168.366L332.329 166.366L326.35 166.405L326.363 168.405ZM335.332 168.347L341.311 168.308L341.298 166.308L335.319 166.347L335.332 168.347ZM344.3 168.289L350.279 168.251L350.266 166.251L344.287 166.289L344.3 168.289ZM353.269 168.231L359.248 168.193L359.235 166.193L353.256 166.231L353.269 168.231ZM362.237 168.174L368.216 168.135L368.203 166.135L362.224 166.174L362.237 168.174ZM371.206 168.116L377.185 168.077L377.172 166.077L371.193 166.116L371.206 168.116ZM380.174 168.058L386.153 168.02L386.14 166.02L380.161 166.058L380.174 168.058ZM389.143 168L395.122 167.962L395.109 165.962L389.13 166L389.143 168ZM398.111 167.943L404.09 167.904L404.077 165.904L398.098 165.943L398.111 167.943ZM407.08 167.885L413.059 167.846L413.046 165.846L407.067 165.885L407.08 167.885ZM416.048 167.827L422.027 167.788L422.014 165.789L416.035 165.827L416.048 167.827ZM425.017 167.769L430.996 167.731L430.983 165.731L425.004 165.769L425.017 167.769ZM433.985 167.711L439.964 167.673L439.951 165.673L433.972 165.712L433.985 167.711ZM442.954 167.654L448.933 167.615L448.92 165.615L442.941 165.654L442.954 167.654ZM451.922 167.596L457.901 167.557L457.888 165.557L451.909 165.596L451.922 167.596ZM460.891 167.538L466.87 167.5L466.857 165.5L460.878 165.538L460.891 167.538ZM469.859 167.48L475.838 167.442L475.825 165.442L469.846 165.48L469.859 167.48ZM478.828 167.423L484.807 167.384L484.794 165.384L478.815 165.423L478.828 167.423ZM487.796 167.365L493.775 167.326L493.762 165.326L487.783 165.365L487.796 167.365ZM496.765 167.307L502.744 167.269L502.731 165.269L496.752 165.307L496.765 167.307ZM505.733 167.249L511.712 167.211L511.699 165.211L505.72 165.249L505.733 167.249ZM514.702 167.192L520.681 167.153L520.668 165.153L514.689 165.192L514.702 167.192ZM523.67 167.134L529.649 167.095L529.636 165.095L523.657 165.134L523.67 167.134ZM532.639 167.076L538.618 167.038L538.605 165.038L532.626 165.076L532.639 167.076ZM541.607 167.018L547.586 166.98L547.573 164.98L541.594 165.018L541.607 167.018ZM550.576 166.961L556.555 166.922L556.542 164.922L550.563 164.961L550.576 166.961ZM559.544 166.903L565.523 166.864L565.51 164.864L559.531 164.903L559.544 166.903ZM568.513 166.845L574.492 166.807L574.479 164.807L568.5 164.845L568.513 166.845ZM577.481 166.787L583.46 166.749L583.447 164.749L577.468 164.787L577.481 166.787ZM586.45 166.73L592.429 166.691L592.416 164.691L586.437 164.73L586.45 166.73ZM595.418 166.672L601.397 166.633L601.384 164.633L595.405 164.672L595.418 166.672ZM604.387 166.614L610.366 166.576L610.353 164.576L604.374 164.614L604.387 166.614ZM613.355 166.556L619.334 166.518L619.321 164.518L613.342 164.556L613.355 166.556ZM622.324 166.499L628.303 166.46L628.29 164.46L622.311 164.499L622.324 166.499ZM631.292 166.441L637.271 166.402L637.258 164.402L631.279 164.441L631.292 166.441ZM640.261 166.383L646.24 166.344L646.227 164.345L640.248 164.383L640.261 166.383ZM649.229 166.325L655.208 166.287L655.195 164.287L649.216 164.325L649.229 166.325ZM658.198 166.267L664.177 166.229L664.164 164.229L658.185 164.268L658.198 166.267ZM667.166 166.21L673.145 166.171L673.132 164.171L667.153 164.21L667.166 166.21ZM676.135 166.152L682.114 166.113L682.101 164.113L676.122 164.152L676.135 166.152ZM685.103 166.094L691.082 166.056L691.069 164.056L685.09 164.094L685.103 166.094ZM694.072 166.036L700.051 165.998L700.038 163.998L694.059 164.036L694.072 166.036ZM703.04 165.979L709.019 165.94L709.006 163.94L703.027 163.979L703.04 165.979ZM712.009 165.921L717.988 165.882L717.975 163.882L711.996 163.921L712.009 165.921ZM720.977 165.863L726.956 165.825L726.943 163.825L720.964 163.863L720.977 165.863ZM729.946 165.805L735.925 165.767L735.912 163.767L729.933 163.805L729.946 165.805ZM738.914 165.748L744.893 165.709L744.88 163.709L738.901 163.748L738.914 165.748ZM747.883 165.69L753.862 165.651L753.849 163.651L747.87 163.69L747.883 165.69ZM756.851 165.632L762.83 165.594L762.817 163.594L756.838 163.632L756.851 165.632ZM765.82 165.574L771.799 165.536L771.786 163.536L765.807 163.574L765.82 165.574ZM774.788 165.517L780.767 165.478L780.754 163.478L774.775 163.517L774.788 165.517ZM783.757 165.459L789.736 165.42L789.723 163.42L783.744 163.459L783.757 165.459ZM792.725 165.401L798.704 165.363L798.691 163.363L792.712 163.401L792.725 165.401ZM801.694 165.343L804.684 165.324L804.672 163.324L801.681 163.343L801.694 165.343ZM804.684 165.324C805.646 165.318 806.601 165.339 807.549 165.388L807.651 163.39C806.665 163.34 805.671 163.318 804.672 163.324L804.684 165.324ZM810.403 165.617C812.319 165.827 814.201 166.148 816.044 166.572L816.493 164.623C814.575 164.181 812.615 163.847 810.621 163.629L810.403 165.617ZM818.812 167.296C820.655 167.836 822.452 168.482 824.198 169.226L824.982 167.386C823.165 166.612 821.293 165.939 819.375 165.377L818.812 167.296ZM826.797 170.426C828.511 171.278 830.168 172.229 831.762 173.27L832.855 171.595C831.197 170.512 829.472 169.523 827.688 168.635L826.797 170.426ZM834.111 174.904C835.647 176.041 837.115 177.265 838.506 178.569L839.874 177.11C838.426 175.753 836.899 174.479 835.301 173.296L834.111 174.904ZM840.537 180.587C841.851 181.97 843.084 183.43 844.231 184.959L845.831 183.759C844.638 182.168 843.354 180.649 841.987 179.21L840.537 180.587ZM845.88 187.298C846.931 188.884 847.892 190.535 848.756 192.244L850.541 191.342C849.642 189.563 848.641 187.844 847.547 186.193L845.88 187.298ZM849.972 194.835C850.728 196.576 851.385 198.369 851.937 200.208L853.853 199.633C853.278 197.718 852.593 195.851 851.807 194.039L849.972 194.835ZM852.679 202.971C853.115 204.811 853.448 206.692 853.67 208.607L855.657 208.376C855.426 206.383 855.079 204.426 854.625 202.51L852.679 202.971ZM853.918 211.459C853.972 212.407 854 213.362 854 214.323H856C856 213.323 855.971 212.33 855.914 211.344L853.918 211.459ZM854 214.323V217.249H856V214.323H854ZM854 220.175V226.028H856V220.175H854ZM854 228.954V234.806H856V228.954H854ZM854 237.732V243.585H856V237.732H854ZM854 246.511V252.363H856V246.511H854ZM854 255.289V261.142H856V255.289H854ZM854 264.068V269.92H856V264.068H854ZM854 272.846V278.698H856V272.846H854ZM854 281.625V287.477H856V281.625H854ZM854 290.403V296.255H856V290.403H854ZM854 299.182V305.034H856V299.182H854ZM854 307.96V313.812H856V307.96H854ZM854 316.738V322.591H856V316.738H854ZM854 325.517V331.369H856V325.517H854ZM854 334.295V340.148H856V334.295H854ZM854 343.074V346H856V343.074H854Z" fill="white"/>
</svg>
