<svg width="126" height="189" viewBox="0 0 126 189" fill="none" xmlns="http://www.w3.org/2000/svg">
<path d="M52.2988 164.022C51.5049 163.718 50.7279 163.358 49.9146 163.118C36.5478 159.186 26.3947 150.971 18.3859 139.926C9.96913 128.319 4.96425 115.301 2.63479 101.294C-1.24783 77.947 1.59548 55.513 12.7814 34.4011C19.2464 22.1991 28.2658 12.3327 40.7571 5.87206C45.8993 3.21245 51.3806 1.55745 57.1971 0.632904C60.6952 0.5 64.1237 0.5 67.7303 0.5C70.2416 1.06375 72.614 1.50518 74.8977 2.22281C77.6343 3.08271 80.2951 4.17833 82.9186 5.27911C82.4742 5.33898 82.082 5.34755 81.7287 5.2358C77.0054 3.74192 72.1082 3.76869 67.3392 4.38042C58.3462 5.53394 50.8356 9.97106 44.1929 15.8997C37.662 21.7285 32.9711 28.9262 29.167 36.6584C23.1013 48.9877 20.0211 62.162 19.3725 75.7886C19.0383 82.8109 19.3021 89.9452 20.1827 96.9192C21.3466 106.137 23.7023 115.138 27.5005 123.738C31.2059 132.129 35.9663 139.793 42.3359 146.436C46.6038 150.886 51.6623 154.281 57.3318 156.758C66.6569 160.833 76.0956 161.256 85.6629 157.568C86.984 157.058 88.3908 156.767 89.758 156.375C84.5249 159.888 78.8595 162.412 72.3723 163.748C71.0751 164.149 70.0559 164.496 69.0368 164.842C68.6455 164.835 68.2541 164.828 67.575 164.827C63.8466 164.698 60.4062 164.554 56.965 164.437C55.884 164.4 54.8004 164.436 53.5932 164.429C53.0786 164.287 52.6887 164.155 52.2988 164.022Z" fill="#04C7F2"/>
<path d="M69.118 164.974C70.0559 164.496 71.0751 164.149 72.2139 163.772C72.751 163.894 73.189 164.22 73.5829 164.174C92.3987 161.989 109.193 155.127 123.659 142.909C124.188 142.463 124.713 142.014 125.253 141.582C125.336 141.515 125.492 141.537 125.942 141.466C125.942 157.067 125.942 172.615 126 188.332C125.889 188.5 125.72 188.5 125.425 188.5C120.95 185.216 116.837 181.555 112.208 178.718C99.0585 170.658 84.6389 166.232 69.118 164.974Z" fill="#582259"/>
<path d="M89.7525 156.369C88.3908 156.767 86.984 157.058 85.6629 157.568C76.0956 161.256 66.6569 160.833 57.3318 156.758C51.6623 154.281 46.6038 150.886 42.3359 146.436C35.9663 139.793 31.2059 132.129 27.5005 123.738C23.7023 115.138 21.3466 106.137 20.1827 96.9192C19.3021 89.9452 19.0383 82.8109 19.3725 75.7886C20.0211 62.162 23.1013 48.9877 29.167 36.6584C32.9711 28.9262 37.662 21.7285 44.1929 15.8997C50.8356 9.97106 58.3462 5.53394 67.3392 4.38042C72.1082 3.76869 77.0054 3.74192 81.7287 5.2358C82.082 5.34755 82.4742 5.33898 83.0084 5.37987C94.8346 9.58997 103.915 17.0458 110.4 27.4151C113.545 32.4428 115.952 37.9227 118.671 43.2087C118.976 43.8016 119.141 44.465 119.471 45.3724C118.46 45.3724 117.72 45.3724 116.979 45.3724C101.842 45.3725 86.704 45.3475 71.5664 45.384C64.4859 45.401 60.3099 52.419 63.8463 58.3213C65.5419 61.1513 68.1986 62.4034 71.4785 62.4043C87.8196 62.4086 104.161 62.4113 120.502 62.3911C121.617 62.3897 122.733 62.1957 124.087 62.0689C124.586 66.1318 125.065 70.0273 125.577 74.1958C124.614 74.1958 123.879 74.1958 123.143 74.1958C105.915 74.1958 88.6874 74.1893 71.4596 74.2007C67.3258 74.2034 63.9654 76.6677 62.9412 80.3733C61.878 84.2201 63.3316 88.0656 66.8764 90.0477C68.0746 90.7177 69.6159 91.0784 71.0024 91.0838C88.3566 91.1518 105.711 91.1285 123.066 91.1286C123.751 91.1286 124.435 91.1286 125.479 91.1286C124.923 95.2462 124.393 99.1722 123.864 103.088C116.25 103.088 108.858 103.088 101.466 103.088C91.5219 103.088 81.5738 103.256 71.6356 103.021C66.2445 102.893 62.5395 107.432 62.5835 111.419C62.6383 116.379 66.345 120.045 71.6048 120.057C86.6157 120.089 101.627 120.068 116.638 120.068C117.328 120.068 118.018 120.068 118.98 120.068C113.413 134.53 105.054 146.574 91.6596 155.058C91.3138 155.223 91.2065 155.336 91.0992 155.449C91.0992 155.449 91.1021 155.421 90.99 155.427C90.7166 155.59 90.5551 155.748 90.3937 155.905C90.3937 155.905 90.3841 155.862 90.2703 155.849C90.0242 156.011 89.8918 156.185 89.7594 156.359C89.7594 156.359 89.7471 156.364 89.7525 156.369Z" fill="#049DD9"/>
<path d="M90.5094 155.889C90.5551 155.748 90.7166 155.59 91.0032 155.433C90.9606 155.579 90.7928 155.726 90.5094 155.889Z" fill="#04C7F2"/>
<path d="M89.8642 156.337C89.8918 156.185 90.0242 156.011 90.2907 155.859C90.2729 156.025 90.121 156.17 89.8642 156.337Z" fill="#04C7F2"/>
<path d="M91.2178 155.428C91.2065 155.336 91.3138 155.223 91.5415 155.089C91.5534 155.181 91.4449 155.294 91.2178 155.428Z" fill="#04C7F2"/>
<path d="M52.1286 164.04C52.6887 164.155 53.0786 164.287 53.7069 164.513C54.526 164.781 55.1067 164.955 55.6874 165.13C34.6939 166.835 16.1218 174.315 0 188.089C0 172.587 0 157.24 0 141.677C1.28898 142.736 2.46732 143.73 3.67189 144.691C17.1573 155.453 32.6354 161.578 49.6927 164.009C50.4349 164.115 51.2026 164.046 52.1286 164.04Z" fill="#582259"/>
<path d="M55.8693 165.138C55.1067 164.955 54.526 164.781 53.8317 164.523C54.8004 164.436 55.884 164.4 56.965 164.437C60.4062 164.554 63.8466 164.698 67.43 164.85C66.6736 164.975 65.7753 165.166 64.8753 165.174C61.9343 165.201 58.9926 165.16 55.8693 165.138Z" fill="#7BCFDE"/>
</svg>
