<svg width="244" height="160" viewBox="0 0 244 160" fill="none" xmlns="http://www.w3.org/2000/svg">
<path d="M244 22.5C244 34.9264 223.923 45 199.158 45C174.392 45 154.316 34.9264 154.316 22.5C154.316 10.0736 174.392 0 199.158 0C223.923 0 244 10.0736 244 22.5Z" fill="#D9D9D9"/>
<path d="M186.467 22.9245C186.467 25.5036 184.383 27.5943 181.813 27.5943C179.243 27.5943 177.16 25.5036 177.16 22.9245C177.16 20.3455 179.243 18.2547 181.813 18.2547C184.383 18.2547 186.467 20.3455 186.467 22.9245Z" fill="black"/>
<path d="M203.811 22.9245C203.811 25.5036 201.728 27.5943 199.158 27.5943C196.588 27.5943 194.504 25.5036 194.504 22.9245C194.504 20.3455 196.588 18.2547 199.158 18.2547C201.728 18.2547 203.811 20.3455 203.811 22.9245Z" fill="black"/>
<path d="M221.156 22.5C221.156 25.0791 219.072 27.1698 216.502 27.1698C213.932 27.1698 211.849 25.0791 211.849 22.5C211.849 19.9209 213.932 17.8302 216.502 17.8302C219.072 17.8302 221.156 19.9209 221.156 22.5Z" fill="black"/>
<path d="M166.372 34.8113L179.744 42.4528H153L166.372 34.8113Z" fill="#D9D9D9"/>
<path d="M0 108.5C0 96.0736 19.8559 86 44.3494 86C68.8429 86 88.6988 96.0736 88.6988 108.5C88.6988 120.926 68.8429 131 44.3494 131C19.8559 131 0 120.926 0 108.5Z" fill="#D9D9D9"/>
<path d="M56.9011 108.075C56.9011 105.496 58.9617 103.406 61.5034 103.406C64.0452 103.406 66.1057 105.496 66.1057 108.075C66.1057 110.655 64.0452 112.745 61.5034 112.745C58.9617 112.745 56.9011 110.655 56.9011 108.075Z" fill="black"/>
<path d="M39.7471 108.075C39.7471 105.496 41.8076 103.406 44.3494 103.406C46.8912 103.406 48.9517 105.496 48.9517 108.075C48.9517 110.655 46.8912 112.745 44.3494 112.745C41.8076 112.745 39.7471 110.655 39.7471 108.075Z" fill="black"/>
<path d="M22.5931 108.5C22.5931 105.921 24.6536 103.83 27.1954 103.83C29.7372 103.83 31.7977 105.921 31.7977 108.5C31.7977 111.079 29.7372 113.17 27.1954 113.17C24.6536 113.17 22.5931 111.079 22.5931 108.5Z" fill="black"/>
<path d="M76.7747 96.1887L63.5494 88.5472H90L76.7747 96.1887Z" fill="#D9D9D9"/>
<path d="M124.295 89.1698C126.137 89.1692 127.844 89.179 129.551 89.1627C130.156 89.1569 131.04 89.3099 131.044 88.4551C131.05 87.4684 130.097 87.7089 129.474 87.7068C124.578 87.6901 119.68 87.663 114.784 87.7259C113.512 87.7422 113.024 87.4017 113.107 86.0643C113.221 84.2294 113.206 82.3789 113.116 80.5415C113.053 79.2603 113.569 78.9357 114.765 78.9481C119.527 78.9974 124.289 78.9666 129.051 78.9648C129.41 78.9647 129.77 78.9765 130.128 78.9516C130.567 78.9211 130.944 78.7601 130.931 78.2406C130.919 77.731 130.528 77.5733 130.103 77.5281C129.747 77.4903 129.385 77.5019 129.026 77.5019C124.174 77.5023 119.322 77.4807 114.471 77.5261C113.493 77.5353 113.091 77.2783 113.121 76.2501C113.178 74.2752 113.175 72.2961 113.116 70.3212C113.084 69.2581 113.494 68.9153 114.534 68.9223C119.43 68.9552 124.327 68.9399 129.223 68.9176C129.897 68.9145 130.953 69.1531 130.972 68.1868C130.994 67.1127 129.904 67.4963 129.271 67.4921C124.419 67.4606 119.567 67.4342 114.716 67.5001C113.452 67.5173 113.13 67.088 113.102 65.8779C113.011 61.8588 113.475 57.9891 115.603 54.4698C119.687 47.7177 125.781 44.4083 133.541 45.087C141.36 45.7708 146.819 50.1321 149.667 57.5397C150.496 59.6962 150.799 61.957 150.795 64.274C150.777 74.7862 150.795 85.2985 150.786 95.8107C150.777 105.805 143.32 113.841 133.392 114.72C124.091 115.543 115.887 109.116 113.665 100.721C113.355 99.5514 113.657 99.1784 114.834 99.1858C119.506 99.2154 124.178 99.1942 128.85 99.1918C129.03 99.1917 129.211 99.2081 129.389 99.1869C130.01 99.1123 130.993 99.4237 130.98 98.457C130.968 97.5413 130.006 97.7308 129.37 97.7288C124.518 97.7137 119.666 97.6803 114.815 97.7465C113.513 97.7643 113.069 97.345 113.123 96.0579C113.203 94.1747 113.184 92.2833 113.11 90.3993C113.073 89.4506 113.377 89.1399 114.322 89.1524C117.601 89.1955 120.881 89.1695 124.295 89.1698Z" fill="#D9D9D9"/>
<path d="M148.868 119.22C153.548 114.752 155.611 109.119 156.54 103.011C157.017 99.8703 157.303 96.6942 156.919 93.4865C156.696 91.6201 157.924 90.1848 159.558 90.0346C161.173 89.8862 162.435 90.9529 162.699 92.859C163.255 96.8644 162.783 100.843 162.097 104.781C161.17 110.104 159.348 115.087 156.101 119.491C151.831 125.281 146.005 128.524 139.095 130.032C138.262 130.213 137.426 130.412 136.581 130.489C135.634 130.576 135.432 131.092 135.412 131.931C135.258 138.532 135.099 145.133 134.876 151.732C134.833 153.003 135.181 153.467 136.513 153.445C140.69 153.375 144.87 153.417 149.049 153.437C149.673 153.44 150.318 153.474 150.916 153.633C152.222 153.98 152.986 155.088 152.968 156.454C152.952 157.734 152.18 158.811 150.941 159.162C150.431 159.307 149.878 159.352 149.345 159.353C137.662 159.364 125.978 159.368 114.295 159.361C111.564 159.359 110.021 157.162 111.2 155.005C111.615 154.244 112.236 153.752 113.082 153.62C113.833 153.504 114.599 153.432 115.359 153.429C119.448 153.409 123.537 153.391 127.626 153.433C128.763 153.445 129.126 153.004 129.063 151.909C128.701 145.67 128.903 139.423 128.826 133.179C128.795 130.69 128.814 130.711 126.395 130.315C121.116 129.45 116.271 127.581 112.119 124.109C106.984 119.815 104.071 114.201 102.407 107.84C101.169 103.106 100.854 98.2812 101.057 93.4127C101.148 91.2265 102.409 89.9248 104.249 90.0383C106.056 90.1498 107.003 91.6147 106.9 93.8368C106.557 101.186 107.527 108.28 111.348 114.738C114.595 120.226 119.509 123.376 125.705 124.481C131.975 125.599 138.142 125.292 144.027 122.537C145.794 121.71 147.335 120.555 148.868 119.22Z" fill="#D9D9D9"/>
</svg>
