<svg width="593" height="99" viewBox="0 0 593 99" fill="none" xmlns="http://www.w3.org/2000/svg">
<path d="M32.9688 98.7812C29.4271 98.7812 25.8854 98.1562 22.3438 96.9062C18.9062 95.6562 15.5729 93.8333 12.3438 91.4375C9.11458 88.9375 6.30208 85.6562 3.90625 81.5938C1.51042 77.5312 0.208333 72.6875 0 67.0625V10.6562C0 7.73958 1.04167 5.34375 3.125 3.46875C5.3125 1.48958 7.86458 0.5 10.7812 0.5C17.0312 1.02083 20.4167 4.40625 20.9375 10.6562V65.8125C21.0417 68.3125 21.5625 70.4479 22.5 72.2188C23.4375 73.8854 24.4792 75.2396 25.625 76.2812C26.7708 77.2188 27.9167 77.9479 29.0625 78.4688C30.3125 78.8854 31.5625 79.0938 32.8125 79.0938C34.0625 79.0938 35.3125 78.8854 36.5625 78.4688C37.8125 77.9479 39.0104 77.2188 40.1562 76.2812C41.3021 75.2396 42.3438 73.8854 43.2812 72.2188C44.2188 70.4479 44.6875 68.3125 44.6875 65.8125V10.6562C44.6875 7.73958 45.7292 5.34375 47.8125 3.46875C50 1.48958 52.5521 0.5 55.4688 0.5C61.7188 1.02083 65.1562 4.40625 65.7812 10.6562V65.8125C65.8854 68.3125 66.4062 70.3958 67.3438 72.0625C68.2812 73.8333 69.3229 75.2396 70.4688 76.2812C71.6146 77.2188 72.7604 77.9479 73.9062 78.4688C75.1562 78.8854 76.4062 79.0938 77.6562 79.0938C78.9062 79.0938 80.1562 78.8854 81.4062 78.4688C82.6562 77.9479 83.8542 77.2188 85 76.2812C86.1458 75.2396 87.1875 73.8854 88.125 72.2188C89.0625 70.4479 89.5312 68.3125 89.5312 65.8125V10.6562C89.5312 7.73958 90.5729 5.34375 92.6562 3.46875C94.8438 1.48958 97.3958 0.5 100.312 0.5C106.562 1.02083 110 4.40625 110.625 10.6562V67.0625C110.625 72.6875 109.375 77.5312 106.875 81.5938C104.479 85.6562 101.667 88.9375 98.4375 91.4375C95.3125 93.8333 91.9792 95.6562 88.4375 96.9062C85 98.1562 81.4583 98.7812 77.8125 98.7812C74.2708 98.7812 70.7292 98.1562 67.1875 96.9062C63.75 95.6562 60.4167 93.7812 57.1875 91.2812C56.5625 90.8646 55.9896 90.3958 55.4688 89.875C54.8438 90.3958 54.2708 90.8646 53.75 91.2812C50.5208 93.7812 47.1354 95.6562 43.5938 96.9062C40.1562 98.1562 36.6146 98.7812 32.9688 98.7812ZM160.156 3H167.344H220.469C223.385 3.10417 225.781 4.19792 227.656 6.28125C229.635 8.36458 230.625 10.8646 230.625 13.7812C230.104 20.0312 226.719 23.4167 220.469 23.9375H165.469C161.51 24.1458 158.229 25.6562 155.625 28.4688C153.021 31.2812 151.094 34.5104 149.844 38.1562C148.698 41.6979 148.125 45.3438 148.125 49.0938C148.125 52.8438 148.698 56.5417 149.844 60.1875C151.094 63.7292 153.021 66.9062 155.625 69.7188C158.229 72.5312 161.51 74.0417 165.469 74.25H220.469C223.385 74.3542 225.781 75.4479 227.656 77.5312C229.635 79.6146 230.625 82.1146 230.625 85.0312C230.521 87.8438 229.479 90.2396 227.5 92.2188C225.625 94.0938 223.281 95.0833 220.469 95.1875H163.125H160.156C152.865 94.7708 146.823 92.0104 142.031 86.9062C137.344 81.6979 133.958 75.8125 131.875 69.25C129.896 62.6875 128.906 55.9688 128.906 49.0938C128.906 42.2188 129.948 35.5 132.031 28.9375C134.115 22.375 137.5 16.5417 142.188 11.4375C146.875 6.22917 152.865 3.41667 160.156 3ZM230.312 48.4688C230.312 51.3854 229.271 53.8333 227.188 55.8125C225.208 57.8958 222.76 58.9375 219.844 58.9375H172.656C169.74 58.9375 167.24 57.9479 165.156 55.9688C163.177 53.8854 162.188 51.3854 162.188 48.4688C162.188 45.5521 163.177 43.0521 165.156 40.9688C167.24 38.9896 169.74 38 172.656 38H219.844C222.76 38 225.208 39.0417 227.188 41.125C229.271 43.1042 230.312 45.5521 230.312 48.4688ZM314.062 3C321.354 3.41667 327.344 6.22917 332.031 11.4375C336.719 16.5417 340.104 22.375 342.188 28.9375C344.271 35.5 345.312 42.2188 345.312 49.0938C345.312 55.9688 344.271 62.6875 342.188 69.25C340.208 75.8125 336.823 81.6979 332.031 86.9062C327.344 92.0104 321.354 94.7708 314.062 95.1875H256.562C253.75 95.0833 251.354 94.0938 249.375 92.2188C247.5 90.2396 246.51 87.8438 246.406 85.0312V46.2812C246.51 43.3646 247.604 40.9688 249.688 39.0938C251.771 37.1146 254.271 36.125 257.188 36.125C260 36.2292 262.396 37.2708 264.375 39.25C266.354 41.125 267.396 43.4688 267.5 46.2812V70.0312C267.5 72.8438 268.958 74.25 271.875 74.25H308.75C312.708 74.0417 315.99 72.5312 318.594 69.7188C321.198 66.9062 323.073 63.7292 324.219 60.1875C325.469 56.5417 326.094 52.8438 326.094 49.0938C326.094 45.3438 325.469 41.6979 324.219 38.1562C323.073 34.5104 321.198 31.2812 318.594 28.4688C315.99 25.6562 312.708 24.1458 308.75 23.9375H256.562C250.312 23.4167 246.927 20.0312 246.406 13.7812C246.406 10.8646 247.344 8.36458 249.219 6.28125C251.198 4.19792 253.646 3.10417 256.562 3H314.062ZM359.062 84.7188C359.062 81.8021 360.052 79.3542 362.031 77.375C364.115 75.2917 366.615 74.25 369.531 74.25H399.531V23.9375H369.531C366.615 23.9375 364.167 22.8958 362.188 20.8125C360.104 18.8333 359.062 16.3854 359.062 13.4688C359.062 10.5521 360.052 8.10417 362.031 6.125C364.115 4.04167 366.615 3 369.531 3H450.469C453.385 3 455.885 3.98958 457.969 5.96875C459.948 8.05208 460.938 10.5521 460.938 13.4688C460.938 16.3854 459.896 18.8854 457.812 20.9688C455.833 22.9479 453.385 23.9375 450.469 23.9375H420.625V74.25H450.469C453.385 74.25 455.885 75.2396 457.969 77.2188C459.948 79.3021 460.938 81.8021 460.938 84.7188C460.938 87.6354 459.896 90.1354 457.812 92.2188C455.833 94.1979 453.385 95.1875 450.469 95.1875H369.531C366.615 95.1875 364.167 94.1458 362.188 92.0625C360.104 90.0833 359.062 87.6354 359.062 84.7188ZM560.938 3C566.25 3.10417 570.99 4.77083 575.156 8C579.323 11.2292 582.656 15.0833 585.156 19.5625C587.76 24.0417 589.688 28.7812 590.938 33.7812C592.188 38.7812 592.812 43.8854 592.812 49.0938C592.812 55.9688 591.719 62.7396 589.531 69.4062C587.448 75.9688 583.958 81.8021 579.062 86.9062C574.271 92.0104 568.229 94.7708 560.938 95.1875H506.406C499.115 94.875 493.021 92.1667 488.125 87.0625C483.229 81.9583 479.74 76.0729 477.656 69.4062C475.677 62.7396 474.688 55.9688 474.688 49.0938C474.688 42.2188 475.729 35.5 477.812 28.9375C479.896 22.2708 483.333 16.3854 488.125 11.2812C493.021 6.07292 499.115 3.3125 506.406 3H509.375H557.969H560.938ZM555.625 74.25C559.583 74.0417 562.865 72.5833 565.469 69.875C568.177 67.0625 570.104 63.8333 571.25 60.1875C572.396 56.5417 572.969 52.8438 572.969 49.0938C572.969 45.3438 572.344 41.6979 571.094 38.1562C569.948 34.5104 568.073 31.2812 565.469 28.4688C562.865 25.6562 559.583 24.1458 555.625 23.9375H511.25C507.292 24.1458 504.01 25.6562 501.406 28.4688C498.802 31.2812 496.875 34.5104 495.625 38.1562C494.479 41.6979 493.906 45.3438 493.906 49.0938C493.906 52.8438 494.479 56.5417 495.625 60.1875C496.771 63.8333 498.646 67.0625 501.25 69.875C503.958 72.5833 507.292 74.0417 511.25 74.25H555.625Z" fill="white"/>
</svg>
